HIERARCHY
ROOT Spine
{
    OFFSET 0.0 0.0 -0.0
    CHANNELS 6 Xposition Yposition Zposition Zrotation Xrotation Yrotation
    JOINT ShoulderCenter
    {
        OFFSET 0.0 35.07554244995117 0.0
        CHANNELS 3 Zrotation Xrotation Yrotation
        JOINT LeftShoulder
        {
            OFFSET 18.598024368286133 0.0 0.0
            CHANNELS 3 Zrotation Xrotation Yrotation
            JOINT LeftElbow
            {
                OFFSET 29.71725082397461 0.0 0.0
                CHANNELS 3 Zrotation Xrotation Yrotation
                JOINT LeftHand
                {
                    OFFSET 32.89411163330078 0.0 0.0
                    CHANNELS 3 Zrotation Xrotation Yrotation
                    End Site
                    {
                        OFFSET 13.157644271850586 0.0 0.0
                    }
                }
            }
        }
        JOINT RightShoulder
        {
            OFFSET -18.598024368286133 0.0 0.0
            CHANNELS 3 Zrotation Xrotation Yrotation
            JOINT RightElbow
            {
                OFFSET -29.71725082397461 0.0 0.0
                CHANNELS 3 Zrotation Xrotation Yrotation
                JOINT RightHand
                {
                    OFFSET -32.89411163330078 0.0 0.0
                    CHANNELS 3 Zrotation Xrotation Yrotation
                    End Site
                    {
                        OFFSET -13.157644271850586 0.0 0.0
                    }
                }
            }
        }
        End Site
        {
            OFFSET 0.0 14.030218124389648 0.0
        }
    }
    JOINT LeftHip
    {
        OFFSET 17.63630222926285 -17.63630222926285 0.0
        CHANNELS 3 Zrotation Xrotation Yrotation
        JOINT LeftKnee
        {
            OFFSET 0.0 -41.61096954345703 0.0
            CHANNELS 3 Zrotation Xrotation Yrotation
            JOINT LeftFoot
            {
                OFFSET 0.0 -44.35432434082031 0.0
                CHANNELS 3 Zrotation Xrotation Yrotation
                End Site
                {
                    OFFSET 0.0 0.0 17.741729736328125
                }
            }
        }
    }
    JOINT RightHip
    {
        OFFSET -17.63630222926285 -17.63630222926285 0.0
        CHANNELS 3 Zrotation Xrotation Yrotation
        JOINT RightKnee
        {
            OFFSET 0.0 -41.61096954345703 0.0
            CHANNELS 3 Zrotation Xrotation Yrotation
            JOINT RightFoot
            {
                OFFSET 0.0 -44.35432434082031 0.0
                CHANNELS 3 Zrotation Xrotation Yrotation
                End Site
                {
                    OFFSET 0.0 0.0 17.741729736328125
                }
            }
        }
    }
}
MOTION
Frames: 6
Frame Time: 0.03333333333333333
-51.099998474121094 10.800000190734863 -35.10000228881836 -33.146990079291896 -2.93448860866923 77.20564171777758 1.4390250402606935e-06 2.090715911131712e-06 0.8219646175937562 108.27329167812839 -10.809567085612048 -145.47108867744254 -3.764284200481321e-06 2.820396750599192e-06 43.69739955356003 7.951386703658794e-16 -5.565970692561154e-15 4.770832022195275e-15 -105.36884354110025 -31.892154090030974 171.70475985977652 8.087783190120464e-07 -2.2401723244907143e-06 -78.79827208628387 -1.7655625192200634e-31 6.3611093629270335e-15 3.1805546814635168e-15 17.14071067228215 -45.43184223595453 58.53520202879367 13.439420134987996 4.794224994744793 -20.356464567215244 1.5902773407317584e-15 -7.951386703658792e-16 1.7393658414253607e-15 2.3628610598711095 -35.77978968603442 -24.769620734738766 2.540531347123717 -7.477509226729355 -12.677594794966797 -7.951386703658791e-16 -1.5902773407317584e-15 4.273870353216601e-15
-51.099998474121094 10.800000190734863 -35.10000228881836 -33.01016170670441 -3.1020243810942913 76.53222829321962 8.700661115502188e-07 -2.7682109542574e-07 1.6394978359008119 108.9625517621638 -11.356670230036936 -145.39745291189476 -1.9533934812812206e-06 1.0998660025880657e-06 43.566909758733644 7.951386703658793e-15 1.1034765745125397e-31 1.5902773407317588e-15 -105.82000723369276 -31.879975651984008 170.68264539173896 -4.694835140486739e-06 3.2609743905611214e-07 -76.38105276058603 -2.648343778830095e-31 -6.3611093629270335e-15 -4.770832022195275e-15 17.79483670330551 -44.90768427345092 59.0008244059634 13.315726238273388 4.728378881209408 -20.56582232937952 0.0 0.0 3.40418743250392e-15 3.1221876074906745 -35.56065283936538 -24.257269193309668 2.535371023720116 -7.788157638947778 -12.936946337167235 1.3103784322336408e-31 -1.5902773407317584e-15 9.442271710594815e-15
-51.20000076293945 10.800000190734863 -35.0 -33.14699406359667 -3.2598847917197795 76.75617850867943 9.896488193114144e-07 -1.1051278698967599e-07 1.5636812470193475 109.26454910739102 -11.735102642283472 -144.96970142138994 2.048397454855003e-06 2.1663131273218753e-06 43.25895877235053 -1.590277340731758e-15 6.361109362927033e-15 -3.1805546814635164e-15 -106.35092499002975 -31.962537181670353 170.57036930405465 -1.3823126747480852e-06 9.587138369612365e-07 -77.03704756379928 0.0 0.0 1.5902773407317584e-15 17.851043662599942 -45.19473245804939 58.64090326191467 13.39038338700326 4.858554345753505 -20.806739514947115 0.0 0.0 3.776908684237926e-15 3.1455032460011516 -35.66962973452018 -24.41695404831937 2.519211063802453 -7.793370810439688 -13.089215610282658 -1.5902773407317582e-15 1.5902773407317582e-15 -8.94531004161614e-16
-51.20000076293945 10.800000190734863 -35.10000228881836 -33.373021429839625 -2.936890353449939 76.77725449233785 -1.6934288970509305e-06 -2.5635701761551376e-06 1.4391713437792242 109.15888205400454 -11.421146774459817 -144.79170343757983 2.4520578895975324e-06 2.0858232054693255e-06 43.16160244834969 7.951386703658792e-16 -6.3611093629270335e-15 4.4139062980501586e-32 -107.59843452574246 -32.70547977202011 170.68221512455284 2.961600532417094e-06 -7.01243471275588e-07 -79.10929396450895 0.0 0.0 -1.5902773407317584e-15 17.401304708206723 -45.40564269238134 58.503768477109006 13.519451122427606 4.413944405013623 -19.452123828785485 0.0 0.0 -1.1927080055488188e-15 2.902789195437087 -36.10122177231661 -24.356589075593536 2.357525211654358 -7.584231221215629 -12.718089133353349 2.2069531490250793e-32 1.5902773407317584e-15 -1.5902773407317584e-15
-51.20000076293945 10.899999618530273 -35.10000228881836 -33.463063615219454 -2.9438821368347354 77.06182518785002 -3.184733065692981e-06 1.5066137711146902e-06 0.9803208812830497 109.57706967924234 -11.469821417483697 -144.7731514062937 2.509983588099122e-06 -5.639011554722864e-08 43.30779468793628 0.0 0.0 6.3611093629270335e-15 -107.96495046040916 -33.37792808159246 170.89841885717016 -7.740991821986486e-06 -3.2230795990715416e-06 -81.03880056151813 0.0 0.0 0.0 17.23494865479928 -45.698434152456436 58.56942893714921 13.433447657555522 4.596618077688234 -19.551860069336122 -6.431199410830895e-32 -7.951386703658792e-16 -9.268335126452279e-15 2.7861510051200455 -36.474734209937026 -25.1541876570382 2.1122029115814716 -7.142636836482837 -12.099925383361114 -7.951386703658791e-16 5.379448300748631e-32 -7.75260203606732e-15
-51.20000076293945 10.899999618530273 -35.10000228881836 -33.599413773545045 -2.939253064948482 77.50709008732353 -3.728541651124565e-07 -1.2618342427537507e-06 0.521237804352024 109.2971154285351 -11.263851306763597 -144.6267265666053 2.4259738334001803e-07 -1.3497373565001274e-06 43.45855654846439 7.951386703658792e-16 5.5659706925611536e-15 -1.5902773407317582e-15 -107.97151060145367 -33.699157045818275 171.38500201930464 -6.148463694944741e-06 -1.3477918320418965e-07 -83.50636359320653 -4.4139062980501586e-32 6.361109362927032e-15 7.95138670365879e-16 16.855701242918112 -45.95898246632694 58.00519637021091 13.533502256056975 4.510310787863568 -19.358383756956894 0.0 0.0 -5.3174898580718184e-15 2.420250344239163 -36.35532312142431 -24.519972119723764 2.2201767120934313 -7.348144123252124 -12.579534816837214 -7.951386703658791e-16 -2.0690185772110117e-32 2.9817700138720468e-15
